<?xml version="1.0" encoding="UTF-8" standalone="no"?>
<!-- Created with Inkscape (http://www.inkscape.org/) -->

<svg
   xmlns:dc="http://purl.org/dc/elements/1.1/"
   xmlns:cc="http://creativecommons.org/ns#"
   xmlns:rdf="http://www.w3.org/1999/02/22-rdf-syntax-ns#"
   xmlns:svg="http://www.w3.org/2000/svg"
   xmlns="http://www.w3.org/2000/svg"
   xmlns:sodipodi="http://sodipodi.sourceforge.net/DTD/sodipodi-0.dtd"
   xmlns:inkscape="http://www.inkscape.org/namespaces/inkscape"
   width="203.239"
   height="83.259003"
   id="svg3346"
   version="1.1"
   inkscape:version="0.48.4 r9939"
   sodipodi:docname="New document 5">
  <defs
     id="defs3348" />
  <sodipodi:namedview
     id="base"
     pagecolor="#ffffff"
     bordercolor="#666666"
     borderopacity="1.0"
     inkscape:pageopacity="0.0"
     inkscape:pageshadow="2"
     inkscape:zoom="0.35"
     inkscape:cx="279.47664"
     inkscape:cy="170.20093"
     inkscape:document-units="px"
     inkscape:current-layer="layer1"
     showgrid="false"
     fit-margin-top="1"
     fit-margin-left="1"
     fit-margin-right="1"
     fit-margin-bottom="1"
     inkscape:window-width="472"
     inkscape:window-height="383"
     inkscape:window-x="928"
     inkscape:window-y="24"
     inkscape:window-maximized="0" />
  <metadata
     id="metadata3351">
    <rdf:RDF>
      <cc:Work
         rdf:about="">
        <dc:format>image/svg+xml</dc:format>
        <dc:type
           rdf:resource="http://purl.org/dc/dcmitype/StillImage" />
        <dc:title></dc:title>
      </cc:Work>
    </rdf:RDF>
  </metadata>
  <g
     inkscape:label="Layer 1"
     inkscape:groupmode="layer"
     id="layer1"
     transform="translate(-95.523357,-619.30411)">
    <g
       transform="translate(-43.363643,498.05411)"
       id="g7">
      <g
         id="g9">
        <path
           style="fill:#ffffff"
           inkscape:connector-curvature="0"
           id="path11"
           d="m 220.068,172.766 v -14.838 c 0,-3.325 2.693,-6.016 6.021,-6.016 h 12.141 v 2.586 c 0,0.245 -0.211,0.461 -0.491,0.461 H 226.09 c -1.491,0 -2.691,1.2 -2.691,2.691 v 15.398 c 0,1.486 1.2,2.69 2.691,2.69 h 7.33 c 1.484,0 3.005,-1.204 3.005,-2.69 v -6.409 h -6.438 c -0.251,0 -0.461,-0.21 -0.461,-0.459 v -2.586 h 9.45 c 0.248,0 0.461,0.21 0.461,0.458 v 9.064 c 0,3.757 -2.688,5.664 -6.017,5.664 h -7.33 c -3.328,0 -6.022,-2.689 -6.022,-6.014 z" />
        <path
           style="fill:#ffffff"
           inkscape:connector-curvature="0"
           id="path13"
           d="m 249.087,165.896 v 12.285 c 0,0.249 -0.21,0.458 -0.458,0.458 h -2.867 v -24.534 c 0,-1.132 0.922,-2.054 2.054,-2.054 h 11.112 c 3.33,0 6.021,2.09 6.021,5.7 v 3.436 c 0,3.113 -2.23,4.816 -4.816,5.488 l 5.663,11.964 h -3.077 c -0.248,0 -0.533,-0.21 -0.637,-0.422 l -5.384,-11.366 h -4.532 -1.023 c -0.996,0 -1.734,-0.285 -1.98,-0.956 h -0.076 z m 9.841,-2.092 c 1.489,0 2.695,-1.198 2.695,-2.688 v -3.326 c 0,-1.487 -1.206,-2.691 -2.695,-2.691 h -9.167 c -0.389,0 -0.674,0.321 -0.674,0.673 v 7.36 c 0,0.393 0.321,0.671 0.674,0.671 h 9.167 z" />
        <path
           style="fill:#ffffff"
           inkscape:connector-curvature="0"
           id="path15"
           d="m 294.457,178.64 h -2.903 c -0.32,0 -0.571,-0.21 -0.635,-0.458 l -2.377,-6.834 h -13.521 l -2.377,6.834 c -0.065,0.249 -0.35,0.458 -0.635,0.458 h -2.903 l 8.64,-24.602 c 0.425,-1.168 1.521,-1.986 2.794,-1.986 h 4.216 c 0.176,0 0.353,0.108 0.425,0.249 l 9.276,26.339 z m -6.977,-10.334 -4.602,-13.207 h -1.735 c -0.284,0 -0.531,0.176 -0.635,0.461 l -4.428,12.746 h 11.4 z" />
        <path
           style="fill:#ffffff"
           inkscape:connector-curvature="0"
           id="path17"
           d="m 317.352,152.052 v 2.586 c 0,0.249 -0.212,0.461 -0.461,0.461 h -11.47 c -1.488,0 -2.688,1.204 -2.688,2.691 v 6.797 c 0.353,-0.463 1.023,-0.783 1.771,-0.783 h 12.034 v 2.586 c 0,0.249 -0.212,0.461 -0.458,0.461 h -13.348 v 11.33 c 0,0.249 -0.21,0.458 -0.461,0.458 h -2.869 v -20.565 c 0,-3.332 2.693,-6.022 6.019,-6.022 h 11.931 z" />
        <path
           style="fill:#ffffff"
           inkscape:connector-curvature="0"
           id="path19"
           d="m 341.126,152.052 v 2.586 c 0,0.249 -0.213,0.461 -0.459,0.461 h -7.577 v 23.082 c 0,0.249 -0.176,0.458 -0.454,0.458 h -2.871 v -23.541 h -7.935 v -2.586 c 0,-0.249 0.215,-0.461 0.461,-0.461 h 18.835 z" />
      </g>
      <g
         id="g21">
        <path
           style="fill:#ffffff"
           inkscape:connector-curvature="0"
           id="path23"
           d="m 172.327,138.537 17.434,10.065 14.105,-8.144 -31.539,-18.208 0,0 -32.063,18.512 14.105,8.144 17.958,-10.369 m 0,-16.287 -32.063,18.512 14.105,8.144 17.958,-10.368" />
        <polygon
           style="fill:#0d2a35"
           id="polygon25"
           points="162.527,164.229 176.634,172.373 204.017,156.781 189.758,148.607 " />
        <path
           style="fill:#0d2a35"
           inkscape:connector-curvature="0"
           id="path27"
           d="m 139.896,184.997 32.063,18.512 32.064,-18.512 -14.106,-8.143 -17.958,10.368 -17.959,-10.368 -14.104,8.143 z" />
        <polygon
           style="fill:#ffffff"
           id="polygon29"
           points="139.887,153.14 139.887,184.997 153.991,176.854 153.991,161.284 " />
        <polygon
           style="fill:#ffffff"
           id="polygon31"
           points="189.91,164.932 189.91,176.854 204.017,184.997 204.017,156.789 " />
      </g>
    </g>
  </g>
</svg>
